<?xml version="1.0" encoding="utf-8"?>
<!-- Generator: Adobe Illustrator 16.0.3, SVG Export Plug-In . SVG Version: 6.00 Build 0)  -->
<!DOCTYPE svg PUBLIC "-//W3C//DTD SVG 1.1//EN" "http://www.w3.org/Graphics/SVG/1.1/DTD/svg11.dtd">
<svg version="1.1" id="Capa_1" xmlns="http://www.w3.org/2000/svg" xmlns:xlink="http://www.w3.org/1999/xlink" x="0px" y="0px"
	 width="92.216px" height="103.688px" viewBox="0 0 92.216 103.688" enable-background="new 0 0 92.216 103.688"
	 xml:space="preserve">
<path fill="#FFFFFF" stroke="#263166" stroke-width="2.5" stroke-miterlimit="10" d="M46.682,101.688
	c0,0-51.454-21.522-42.173-76.817c0,0,11.366,7.874,15.866,5.424c4.5-2.449,2.74-6.067-1.659-13.708L46.867,1.599"/>
<path fill="#273067" stroke="#263166" stroke-width="2.5" stroke-miterlimit="10" d="M45.923,101.688
	c0,0,51.455-21.522,42.174-76.817c0,0-11.366,7.874-15.866,5.424c-4.5-2.449-2.74-6.067,1.658-13.708L45.738,1.599"/>
<path fill-rule="evenodd" clip-rule="evenodd" fill="#FFFFFF" d="M45.837,43.093c3.779,1.79,7.757,3.179,11.241,5.561
	c0.424,0.29,0.542,0.15,0.739-0.241c2.784-5.527,8.396-7.706,14.189-5.527c0.622,0.234,1.233,0.503,1.87,0.688
	c0.971,0.282,1.452,0.027,1.682-0.931c0.217-0.905,0.879-0.325,1.319-0.441c0.497-0.132,0.434,0.306,0.451,0.612
	c0.152,2.719,0.31,5.438,0.447,8.157c0.013,0.263,0.262,0.768-0.26,0.734c-0.486-0.032-1.189,0.458-1.454-0.429
	c-0.481-1.61-1.037-3.188-1.996-4.593c-1.177-1.725-2.781-2.665-4.888-2.668c-2.51-0.003-4.214,1.219-5.198,3.491
	c-0.452,1.043-0.709,2.145-0.821,3.27c-0.304,3.048-0.253,6.086,0.657,9.037c0.652,2.117,1.814,3.884,4.197,4.282
	c2.622,0.437,4.783-0.465,6.403-2.595c0.672-0.885,1.192-1.869,1.437-2.942c0.173-0.757,0.531-0.93,1.24-0.893
	c1.104,0.058,1.1,0.014,0.859,1.061c-1.27,5.515-5.295,7.679-10.563,7.39c-1.393-0.077-2.737-0.412-4.064-0.969
	c-0.539,2.444-1.433,4.657-3.146,6.44c-3.069,3.193-6.934,4.096-11.193,3.758c-1.066-0.084-2.121-0.286-3.142-0.628l0.018,0.021
	c-0.648-1.115-0.404-2.301-0.187-3.448c0.102-0.54,0.676-0.451,1.106-0.34c1.097,0.282,2.192,0.498,3.338,0.484
	c3.255-0.039,5.615-2.424,5.847-5.671c0.273-3.814-1.788-6.057-4.82-7.73c-1.472-0.811-2.999-1.517-4.504-2.264
	c-0.336-0.167-0.692-0.304-0.929-0.624c-0.055-0.092-0.089-0.189-0.108-0.294c-0.03-0.171-0.097-0.336-0.099-0.511
	c-0.033-3.496-0.028-6.992-0.003-10.488c0.002-0.236,0.057-0.458,0.207-0.648C45.75,43.165,45.793,43.129,45.837,43.093z"/>
<path fill-rule="evenodd" clip-rule="evenodd" fill="#FFFFFF" d="M45.837,26.727c2.799,0.066,5.387,0.961,7.934,2.021
	c0.427,0.177,0.858,0.345,1.294,0.497c1.125,0.391,1.633,0.21,2.222-0.815c0.2-0.349,0.396-0.719,0.489-1.104
	c0.121-0.499,0.384-0.601,0.862-0.601c1.798,0,1.801-0.019,1.864,1.773c0.148,4.197,0.279,8.394,0.454,12.589
	c0.027,0.642-0.111,0.847-0.786,0.834c-1.71-0.034-1.706-0.001-2.326-1.608c-0.996-2.583-2.235-5.014-4.263-6.97
	c-2.166-2.089-4.822-2.875-7.744-2.987c-0.043-0.037-0.086-0.073-0.129-0.109c-0.293-1.195-0.498-2.388,0.154-3.543L45.837,26.727z"
	/>
<path fill-rule="evenodd" clip-rule="evenodd" fill="#273067" d="M45.863,30.381c-3.135,0.072-5.291,1.563-5.967,4.181
	c-0.509,1.968-0.036,3.711,1.318,5.225c1.298,1.452,2.976,2.36,4.651,3.272c0,4.012,0,8.024-0.001,12.037
	c-0.326,0.154-0.625,0.034-0.916-0.103c-2.735-1.283-5.386-2.706-7.69-4.691c-0.992-0.854-1.813-1.856-2.415-2.827
	c0.045,0.996,0.111,2.168,0.2,3.34c0.044,0.578-0.105,1.104-0.811,1.241c-0.753,0.146-1.319-0.128-1.595-0.849
	c-0.299-0.784-0.531-1.593-0.854-2.37c-0.497-1.193-1.193-2.243-2.143-3.128c-2.592-2.415-6.873-1.545-8.317,1.694
	c-0.573,1.285-0.889,2.639-0.975,4.032c-0.184,2.96-0.166,5.914,0.886,8.747c0.77,2.073,2.088,3.522,4.465,3.672
	c1.886,0.119,3.5-0.541,4.768-1.874c1.193-1.255,2.05-2.717,2.012-4.568c-0.02-0.974,0.292-1.233,1.242-1.289
	c0.318-0.019,0.638,0,0.956-0.004c0.735-0.009,1.193,0.332,1.418,1.035c0.487,1.52,1.099,2.992,1.785,4.43
	c1.372,2.871,3.029,5.54,5.577,7.544c0.456,0.359,0.931,0.689,1.442,0.966c0.393,0.213,0.602,0.122,0.603-0.346
	c0-0.231,0.004-0.464,0.004-0.695c0-4.201-0.004-8.401,0.005-12.602c0.001-0.478-0.108-1.001,0.338-1.377
	c2.249,0.988,4.48,2.01,6.569,3.314c2.51,1.568,3.965,3.714,3.91,6.789c-0.081,4.526-3.257,7.235-7.744,6.541
	c-0.912-0.142-1.792-0.407-2.723-0.713c0,1.303,0,2.517,0,3.732c-1.777-0.545-3.435-1.359-5.069-2.23
	c-0.484-0.258-0.969-0.521-1.473-0.732c-1.185-0.497-1.744-0.265-2.27,0.916c-0.308,0.691-0.497,1.426-0.566,2.174
	c-0.043,0.467-0.237,0.548-0.656,0.562c-2.27,0.072-2.251,0.082-2.349-2.198c-0.144-3.383-0.315-6.766-0.483-10.339
	c-1.241,1.435-2.654,2.335-4.328,2.797c-8.342,2.303-15.7-3.811-15.083-12.51c0.276-3.885,1.737-7.137,5.067-9.316
	c3.296-2.157,6.823-2.305,10.458-0.907c0.62,0.238,1.249,0.451,1.873,0.676c0.318,0.116,0.732,0.163,0.907-0.073
	c0.499-0.675,1.264-1.281,1.236-2.187c-0.087-2.824,0.263-5.553,1.567-8.089c2.169-4.22,5.703-6.31,10.39-6.554
	c0.26-0.014,0.521-0.015,0.781-0.021C45.863,27.93,45.863,29.155,45.863,30.381z"/>
</svg>
