<svg xmlns="http://www.w3.org/2000/svg" xmlns:svg="http://www.w3.org/2000/svg" width="282.0840806770715" height="354.50423065341124" viewBox="0 0 147.42178 185.20833" version="1.1" id="svg1" xml:space="preserve"><defs id="defs1"/><g id="layer1" transform="translate(-33.316135,-45.002013)"><g id="g1" transform="matrix(0.26458333,0,0,0.26458333,1.1937082,31.772846)"><path class="st0" d="m 463.2107,750 c -0.8244,0 -1.6562,-0.1349 -2.4605,-0.4122 -69.81,-24.0528 -90.6021,-64.5195 -95.4515,-76.7947 -72.0112,-32.0974 -120.0039,-74.915 -135.0833,-89.4346 -0.7358,0.2351 -1.5096,0.3574 -2.2961,0.3574 -0.0928,0 -0.185,-0.002 -0.2778,-0.005 -2.2086,-0.0812 -4.2706,-1.1248 -5.6437,-2.8558 -2.0019,-2.5248 -49.1318,-62.1939 -64.3139,-101.1985 -24.0702,-54.6848 -36.2763,-114.9279 -36.2763,-179.0511 0,-80.3695 37.5571,-184.6931 39.1558,-189.0945 1.0853,-2.9876 3.9243,-4.9769 7.1027,-4.9769 h 72.5937 C 253.574,97.5884 327.8349,50 400.5603,50 c 72.6885,0 144.9291,46.8099 157.9653,55.681 l 74.3743,0.8534 c 3.1394,0.0358 5.9288,2.0093 7.0094,4.9569 1.5792,4.3122 38.683,106.5818 38.683,191.0331 -0.9657,105.3805 -32.5233,177.8108 -58.8257,220.0275 -21.995,35.3022 -43.7864,55.7938 -53.3207,63.8417 l 4.6216,9.7061 c 1.2018,2.5237 0.9119,5.504 -0.7527,7.7495 -1.4379,1.9387 -3.6981,3.0562 -6.069,3.0562 -0.3743,0 -0.7496,-0.0274 -1.1259,-0.0844 l -16.5784,-2.4963 c -34.0435,27.7562 -77.6739,51.324 -92.1123,58.8268 4.8209,35.4245 15.9607,76.8864 16.0777,77.3218 0.7295,2.6998 -0.0928,5.5831 -2.1369,7.4922 -1.4221,1.3282 -3.2733,2.0345 -5.1593,2.0345 z" id="path1"/><path d="m 167.6663,114.0905 c 0,0 -38.7023,106.5513 -38.7023,186.5148 0,79.9635 19.0713,138.4167 35.7037,176.1595 14.8732,38.3824 63.2511,99.3946 63.2511,99.3946 l 2.7587,-2.9987 c 0,0 53.0957,55.7346 140.6557,94.037 0,0 13.4338,48.218 91.878,75.2456 0,0 -12.4743,-46.1789 -16.9522,-83.6018 0,0 57.5337,-28.6669 98.0752,-62.4914 l 19.9109,2.9986 -7.1967,-15.1131 c 0,0 112.1488,-81.2429 113.9879,-281.7112 0,-84.0816 -38.2225,-188.4339 -38.2225,-188.4339 l -76.6849,-0.8796 c 0,0 -78.4841,-55.6546 -155.5689,-55.6546 -77.0848,0 -157.9678,56.5342 -157.9678,56.5342 z" id="path2"/><path class="st0" d="m 143.7972,272.5581 c 0,0 -0.9596,33.7446 -1.1195,41.2611 h 53.0957 c 22.0699,0 29.8725,-3.7834 34.7086,-10.2149 L 253.8269,272.558 H 143.7972 Z" id="path3"/><path class="st0" d="m 144.6368,342.0064 c 0,0 3.4784,31.1857 6.1172,40.9013 h 8.8759 c 0,0 -2.6388,-21.83 5.9973,-40.9013 z" id="path4"/><path class="st0" d="m 167.3065,382.9077 h 20.0308 l 0.8396,-2.8787 c 0,0 -12.8341,-0.5997 -20.8704,2.8787 z" id="path5"/><path class="st0" d="m 157.9507,414.8131 c 0,0 4.7978,21.5901 12.9541,41.0213 h 18.7114 c 0,0 -9.5956,-21.2303 -8.2762,-41.0213 z" id="path6"/><path class="st0" d="m 554.3696,313.2595 c 0,0 16.5525,-14.8732 20.2708,-22.6696 3.7183,-7.7964 4.438,-17.8719 4.438,-17.8719 h 76.565 c 0,0 2.0391,24.069 1.0795,40.5415 z" id="path7"/><path class="st0" d="m 550.2515,342.1663 c 0,0 3.1586,18.9514 0.4398,40.1816 h 98.6349 c 0,0 4.478,-25.8282 5.6774,-40.1816 z" id="path8"/><path class="st0" d="m 521.2647,455.6344 c 0,0 15.7128,-20.6306 21.4702,-40.5415 h 99.3946 c 0,0 -5.6375,22.0699 -13.074,40.5415 z" id="path9"/><path class="st0" d="m 540.2161,321.9355 c 0,0 7.6365,22.3098 5.4775,52.1761 l -12.1864,-2.8784 c -0.5632,-0.133 -1.1399,-0.2002 -1.7186,-0.2002 h -2.8254 c -0.609,0 -1.1993,0.2102 -1.6713,0.595 l -36.5333,29.7911 c 0,0 4.438,18.3116 5.2776,28.507 0.8396,10.1953 10.6751,20.9904 19.0713,24.8287 0,0 -23.5093,32.0254 -62.5314,47.6982 l -2.4389,-19.2312 -46.3388,-19.4711 -39.342,22.7896 v 23.5892 h -2.3989 c 0,0 4.438,-18.3116 -18.2716,-25.0286 -21.91,-5.9173 -33.1049,-6.3971 -36.9431,-8.3162 -3.8383,-1.9191 -7.1967,-9.4357 -7.8364,-17.1122 l 15.7528,-7.5166 v -29.8264 c 0,0 7.8364,-15.0331 26.0681,-15.0331 18.2317,0 40.4615,15.273 57.4138,26.7878 16.9523,11.5147 25.5883,12.1544 28.9468,12.1544 3.2542,0 9.5112,-0.976 10.3332,-12.1659 0.0541,-0.7368 0.1294,-1.4728 0.284,-2.1952 2.0279,-9.4726 4.8286,-10.8174 5.1756,-27.8196 -0.2663,-9.8769 -2.6788,-15.6329 -2.6788,-15.6329 0,0 50.8766,0.4844 57.8335,-46.3742 -2e-4,2e-4 25.1684,-8.4006 42.0807,-20.1153 z" id="path10"/><path class="st1" d="m 460.9982,225.1003 c -1.6876,-0.006 -3.3781,-0.5023 -4.6815,-1.5744 -0.1339,-0.1102 -0.2622,-0.2253 -0.3821,-0.3453 -1.1994,-1.1994 -10.5552,-11.1549 -24.5887,-11.1549 -8.5292,0 -15.3912,3.6196 -18.3762,5.4965 -1.2225,0.7687 -2.5893,1.2573 -4.0184,1.465 -6.0884,0.8847 -22.7784,3.074 -38.8574,3.074 -20.1508,0 -37.183,-3.4784 -55.8945,-10.0354 -14.0336,-4.3296 -26.188,-3.7183 -26.188,-3.7183 0,0 -42.0608,-1.7991 -67.0494,18.5715 0,0 32.0254,10.0754 58.5332,40.3016 l -46.3388,61.4919 c 0,0 -51.8963,-3.5183 -56.2143,33.9045 0,0 17.472,-0.8996 34.5042,6.657 0,0 -11.9945,24.6288 -11.9945,49.4174 -1.1994,26.7078 12.2344,37.7427 15.353,59.3329 3.5983,23.0295 -4.318,38.3824 10.5552,65.2502 l 13.0341,-24.4689 c 0,0 32.5451,20.6306 42.1407,25.6683 9.5956,5.0377 16.9523,10.4752 47.4184,20.7905 30.4661,10.3152 44.0599,25.6683 49.4974,39.9017 6.557,16.8723 -0.16,29.9863 11.5147,56.5342 11.6747,26.5479 29.1067,40.7814 48.6178,51.0167 0,0 -11.115,-48.4578 -11.115,-86.1206 0,-37.6628 9.1958,-41.0212 18.0718,-45.3393 8.8759,-4.318 27.3475,-11.9945 85.6409,-6.7169 0,0 -27.1876,-47.6582 -84.7613,-47.6582 0,0 -17.8319,0 -41.1812,7.3566 -23.3493,7.3566 -82.2024,-2.3989 -82.2024,-2.3989 0,0 26.308,-6.2371 21.2703,-27.9872 0,0 -41.3411,-7.4366 -50.1371,-14.9532 -8.796,-7.5165 -11.9146,-23.9091 -11.9146,-36.3834 -0.7197,-17.352 18.1517,-61.332 60.6923,-62.1316 0,0 20.5506,-1.8391 59.8927,24.3889 l 18.7114,11.8346 c 0,0 4.318,-9.9155 4.318,-22.5497 0.8796,-14.2335 -12.7142,-28.627 -14.7133,-36.3834 0,0 8.8759,0.6797 17.6319,2.1191 8.756,1.4393 12.4744,1.0795 15.8328,1.0795 3.3584,0 16.5924,0.0799 28.1071,-12.9941 11.5148,-13.0741 9.4757,-26.7478 9.4757,-26.7478 l 2.2789,-5.6774 v -7.1967 c 0,0 -15.8327,17.1522 -19.7909,19.3112 l -2.8787,-30.8259 -16.5524,26.148 -9.7156,-30.9458 -11.8746,34.4243 -14.8732,-40.7814 -10.915,32.5052 -21.3503,-34.2244 -15.8327,28.3071 c 0,0 -4.1981,-0.9595 -6.1372,-3.4384 l 21.6901,-39.5419 19.3111,31.6655 12.8342,-38.1425 15.1131,41.2611 13.194,-35.8636 10.6751,36.8232 20.5106,-31.7855 2.8787,38.2625 21.4302,-20.2308 -0.4798,23.1894 h 3.1185 c 0,0 35.3039,-11.3549 55.1348,-29.9064 0,0 11.5148,-9.9155 11.5148,-21.9099 0,-11.9065 -17.8071,-47.1354 -99.4886,-47.418 z M 308.3221,345.7247 c 0,0 -8.4761,-12.2744 -6.1172,-35.7037 l 3.3584,-1.9991 c 0,0 -1.4393,20.2708 3.6783,37.7028 z m 4.9977,-50.417 h 4.3181 c 0,0 -4.2781,24.0291 5.9172,49.2175 0,0 -13.9936,-15.6728 -10.2353,-49.2175 z m 10.3552,-3.6384 3.5183,-0.7996 c 0,0 -1.4393,30.8659 5.1177,45.5792 1e-4,0 -12.4743,-15.6729 -8.636,-44.7796 z m 113.1483,-42.5405 c -2.5189,-5.8773 -12.1145,-14.1535 -12.1145,-14.1535 11.8746,4.318 29.5065,3.2385 29.5065,3.2385 -7.1967,3.4784 -17.392,10.915 -17.392,10.915 z" id="path11"/><polygon class="st0" points="400,192.3547 400,158.5202 424.369,158.5202 424.369,141.9778 400,141.9778 400,127.1045 429.8265,127.1045 429.8265,109.5126 400,109.5126 390.0047,109.5126 374.012,109.5126 374.012,192.3547 " id="polygon11"/><path class="st0" d="M 343.6384,109.5126 H 295.223 v 82.8421 h 25.8682 v -30.701 h 18.7914 c 2.7758,0 5.5248,-0.4729 8.142,-1.3323 10.6916,-3.0737 17.2745,-11.0143 17.9627,-21.1327 0.0494,-0.5832 0.0833,-1.17 0.0833,-1.7639 v -5.4799 c 0,-12.389 -10.0432,-22.4323 -22.4322,-22.4323 z m -3.1561,26.5329 c 0,4.7365 -3.9581,8.5761 -9.8355,8.5761 h -9.3557 v -17.9918 h 10.6752 c 4.7033,0 8.5161,3.8128 8.5161,8.5161 v 0.8996 z" id="path12"/><path class="st0" d="m 488.0508,157.7355 c -1.8279,4.6997 -6.3845,8.0363 -11.7305,8.0363 -6.9557,0 -12.5943,-5.6386 -12.5943,-12.5942 0,-6.9557 5.6386,-12.5943 12.5943,-12.5943 4.8,0 9.6493,2.6866 11.7746,6.6369 h 31.0658 c -2.9587,-22.3698 -20.6883,-37.3029 -42.7105,-37.3029 -24.0521,0 -43.5501,19.3593 -43.5501,43.2402 0,23.8809 19.498,43.2402 43.5501,43.2402 22.2798,0.7397 44.7096,-20.0108 42.7505,-38.6623 h -31.1499 z" id="path13"/></g></g><style type="text/css" id="style1">
	.st0{fill:#FFFFFF;}
	.st1{fill:#FF7200;}
</style></svg>